<svg width="24" height="24" viewBox="0 0 24 24" fill="none" xmlns="http://www.w3.org/2000/svg">
<path d="M8.5625 22.4566C8.9422 22.4566 9.25 22.165 9.25 21.8053C9.25 21.4456 8.9422 21.1541 8.5625 21.1541C8.1828 21.1541 7.875 21.4456 7.875 21.8053C7.875 22.165 8.1828 22.4566 8.5625 22.4566Z" stroke="black" stroke-width="2" stroke-miterlimit="10" stroke-linecap="round" stroke-linejoin="round"/>
<path d="M18.1875 22.4566C18.5672 22.4566 18.875 22.165 18.875 21.8053C18.875 21.4456 18.5672 21.1541 18.1875 21.1541C17.8078 21.1541 17.5 21.4456 17.5 21.8053C17.5 22.165 17.8078 22.4566 18.1875 22.4566Z" stroke="black" stroke-width="2" stroke-miterlimit="10" stroke-linecap="round" stroke-linejoin="round"/>
<path d="M1 1.61536H3.75L6.5 17.2463H20.25L23 5.5231H5.125" stroke="black" stroke-width="2" stroke-linecap="round" stroke-linejoin="round"/>
</svg>
