<svg width="23" height="22" viewBox="0 0 23 22" fill="none" xmlns="http://www.w3.org/2000/svg">
<path d="M13.3331 20.6967V20.6954V16.2457C13.3331 15.9441 13.2356 15.6396 13.0406 15.402C12.8433 15.1617 12.5521 15.0013 12.222 15.0013H9.77757C9.44746 15.0013 9.15628 15.1617 8.95899 15.402C8.76398 15.6396 8.66646 15.9441 8.66646 16.2457V20.6987C8.66646 20.7916 8.63543 20.8657 8.60132 20.9074C8.58521 20.9271 8.5715 20.9362 8.56419 20.9399C8.5605 20.9418 8.55805 20.9425 8.55692 20.9428L8.55538 20.9431L8.55536 20.9431L4.27834 20.9566L4.27832 20.9566L4.27686 20.9563C4.27623 20.9562 4.27518 20.9559 4.27371 20.9553C4.27261 20.9549 4.27128 20.9543 4.26972 20.9535C4.2625 20.9499 4.24881 20.9409 4.23268 20.9213C4.19848 20.8796 4.16723 20.8054 4.16723 20.7122V13.2937L11.0013 6.43722L17.8339 13.2886V20.7122C17.8339 20.8054 17.8026 20.8796 17.7684 20.9213C17.7523 20.9409 17.7386 20.9499 17.7314 20.9535C17.73 20.9542 17.7289 20.9547 17.7279 20.9551C17.7262 20.9558 17.7249 20.9562 17.7243 20.9563L17.7228 20.9566L17.7228 20.9566L13.4459 20.9421H13.4442L13.4439 20.9421L13.4427 20.9419C13.4416 20.9416 13.4392 20.9409 13.4356 20.9391C13.4282 20.9353 13.4144 20.9263 13.3984 20.9066C13.3822 20.8869 13.3654 20.8584 13.3528 20.821C13.3402 20.7836 13.333 20.7412 13.3331 20.6967ZM21.4782 11.1769L21.4806 11.1792C21.4804 11.179 21.4846 11.1834 21.4896 11.1947C21.4948 11.2065 21.4994 11.2229 21.5011 11.2425C21.5027 11.2622 21.501 11.2815 21.4968 11.2984C21.4925 11.3154 21.4867 11.3265 21.4829 11.3321L20.5583 12.7014L11.6476 3.76158L11.6477 3.76156L11.6438 3.75779C11.4769 3.59391 11.2512 3.48897 11.0013 3.48897C10.7514 3.48897 10.5257 3.59391 10.3588 3.75779L10.3588 3.75777L10.355 3.76159L1.4451 12.7011L0.519597 11.3305L0.518815 11.3294C0.515108 11.3239 0.509294 11.313 0.50504 11.2961C0.5008 11.2793 0.499012 11.2601 0.500537 11.2405C0.502064 11.2209 0.50662 11.2044 0.511841 11.1924C0.516742 11.1811 0.521 11.1765 0.521123 11.1764L10.1885 1.47794C10.1885 1.4779 10.1886 1.47785 10.1886 1.4778C10.4326 1.23332 10.7203 1.11601 10.9994 1.11601C11.2785 1.11601 11.5664 1.23336 11.8104 1.47794L11.8104 1.47798L15.2299 4.90506L16.0839 5.76089V4.5519V1.17367C16.0839 1.14839 16.0889 1.12876 16.0942 1.11536H18.1291C18.1344 1.12876 18.1394 1.14839 18.1394 1.17367V7.61795V7.82446L18.2852 7.97078L21.4782 11.1769ZM11.2935 4.11456L20.278 13.1285L10.7091 4.11456C10.7919 4.03329 10.895 3.98897 11.0013 3.98897C11.1076 3.98897 11.2107 4.03329 11.2935 4.11456Z" stroke="black"/>
</svg>
